<?xml version="1.0" encoding="utf-8"?>
<!-- Generator: Adobe Illustrator 25.2.0, SVG Export Plug-In . SVG Version: 6.00 Build 0)  -->
<svg version="1.1" id="Capa_1" xmlns="http://www.w3.org/2000/svg" xmlns:xlink="http://www.w3.org/1999/xlink" x="0px" y="0px"
	 viewBox="0 0 297.7 90.5" style="enable-background:new 0 0 297.7 90.5;" xml:space="preserve">
<g>
	<path d="M83.6,71.5L61.3,15.3h-3.6L40.3,58.8c-0.5,0-1,0-1.4,0c-7.7-0.3-14.3-1-20.7-2V18.2c0-1.9,0.9-2.3,2.5-2.3h0.2v-0.7h-8.5
		v0.7h0.2c1.5,0,2.4,0.4,2.4,2.2v34.4v0.1c0,0.1,0,0.2,0,0.3c0,2.1,2.1,6.3,2.8,6.4c7.8,1.2,15.7,1.9,24.8,2c1.1,0,2.3,0,3.5,0
		c8.1,0,13.5-0.3,17.9-0.9l1.5-0.2l-1.4,0.6c-3.4,1.5-5.6,4.7-5.6,5.8c0,0.6,0.7,2.5,0.9,2.9C61.3,72.8,70,75,77.7,75
		c4.2,0,15.6-1.7,21.5-3.1c0.3-0.1,1.9-1.8,3-3.1l-0.2-0.3C96.8,69.7,89.5,70.8,83.6,71.5z M16.3,56.6L16.3,56.6
		C16.3,56.5,16.3,56.5,16.3,56.6L16.3,56.6z M76.9,71.8c-7.2,0-14.6-1.6-17.8-4.8L59,67v-0.1c1.1-3.1,4.1-5.4,8.7-6.7
		c0.5-0.9,0.6-2,0.8-3l-0.3-0.3c-4.8,1.2-11.7,2.2-22.1,2.2c-0.8,0-1.5,0-2.2,0l0.3-0.7l0,0l1.8-4.6l13.5-34.3l13.6,34.3
		c0,0,1.7,4.5,2,5.1l0,0L80,71.8C78.9,71.8,77.8,71.8,76.9,71.8z"/>
	<path d="M137.8,60.5c-1.6-2.6-3.1-5.1-4.5-6.7l0,0c-4.2-4.9-9.8-7-13.1-7.8h4.9c8.7,0,15.7-6.8,15.7-15.2s-7-15.3-15.7-15.3h-22.5
		v0.7h0.2c1.6,0,2.5,0.4,2.5,2.3v53.5c0,1.9-0.9,2.3-2.5,2.3h-0.2v0.7h8.5v-0.7h-0.2c-1.5,0-2.5-0.9-2.5-2.2V46h6.5
		c7,0,13.3,6.6,17.3,12.2l0.2,0.2c4.2,5.8,12,16.5,18.6,16.5h0.1h0.2v-0.7h-0.2C145.9,74.1,141.6,67,137.8,60.5z M108.4,45.3V18.4
		c0-1.4,0.9-2.2,1.8-2.2h14.9c6.9,0,12.5,6.5,12.5,14.6c0,7.9-5.7,14.5-12.5,14.5C125.1,45.4,108.4,45.4,108.4,45.3z"/>
	<path d="M170.7,15.2h-0.2c-0.2,0-0.4,0-0.6,0c-16.2,0.4-29.2,13.7-29.2,30s13.1,29.6,29.4,30c0.2,0,0.3,0,0.5,0h0.3
		c16.5,0,30-13.5,30-30.1C200.9,28.6,187.4,15.2,170.7,15.2z M190.3,65.8c-4.6,4.6-10.9,7.2-17.8,7.4c-15.9-0.5-29.7-14.5-29.7-30.5
		c0-0.9,0-1.8,0.1-2.6c0,0,0,0,0-0.1c1.8-14.7,13.7-22.5,25-22.5c14.4,0,29.8,12.2,29.8,30.3C197.7,54.8,195.1,61.1,190.3,65.8z"/>
	<path d="M284.9,51c-1.1,0-1.9-0.3-2.5-1c-0.5-0.6-0.8-1.4-1.1-2.7c-0.1-1-0.2-2.1-0.4-3.2h-0.4c-0.2,0.1-0.4,0.3-0.5,0.5
		c-0.4,0.4-0.8,0.9-1.1,1.4c0.9,3.8,1.5,6.3,2,10c0,0-1.1,0.8-5,1.3l-17-42h-3.6l-17.5,43.6c-0.2,0-0.4,0-0.6,0
		c0-9.3-7.7-14.5-16.9-19.8l0,0c-1-0.6-2.1-1.2-3.1-1.8c-6.4-3.5-12.4-6.8-12.4-12.8c0-5.2,3.5-8.3,9.4-8.3c3.8,0,7.7,1.1,12.4,3.6
		c2.2,1.1,3.2,2.8,3.1,5.1v0.2h0.7v-5.7h-0.1c-1.2-0.3-7.9-2.4-8.6-2.7c-4.1-1.4-6.2-1.5-8.1-1.5c-7,0-11.8,4.1-11.8,10.3
		c0,7.2,6.3,11.1,16,16.2c10.3,5.4,15.7,11.1,16.5,17.1c-0.7,0-1.4-0.1-2.1-0.1c-4.9-0.4-8.7-1-11.8-1.7l-0.4,0.3c0.2,1,0.4,2,1,2.9
		c4.5,1.2,7.7,3.2,9.1,5.8c0.2,0.3,0.3,0.6,0.4,0.9v0.1l-0.1,0.1c-0.8,0.7-1.5,1.2-2.4,1.7c-3.5,1.9-8.1,2.9-14.3,2.9
		c-4.3,0-9-0.4-14.2-1.2c-1.1-0.2-2.3-0.4-3.5-0.6s-2.3-0.4-3.5-0.7l-0.2,0.3c1.1,1.3,2.9,3,3.2,3.1c6.5,1.4,12.8,2.2,17.4,2.2
		c8.3,0,15-2.1,17.1-5.2c0.1-0.2,0.4-0.9,0.7-1.6c0.2-0.5,0.3-1,0.3-1.2c0-0.3-0.2-0.8-0.5-1.3c-0.9-1.4-2.9-3.3-5.6-4.4l-1.5-0.6
		l1.7,0.2c2.1,0.3,4.3,0.5,6.9,0.6c0.9,0.1,1.8,0.1,2.7,0.1c2.8,0.1,6,0.2,9.8,0.2c1.3,0,6.6,0,7.9,0c7.5-0.1,14.2-0.5,20.7-1.2
		c0.1,0,0.2,0,0.3,0l5.6,14.6h3.7l-5.8-15c0.8-0.1,1.6-0.2,2.4-0.3c0.3,0,0.9-0.9,1.5-2c0-0.1,0.1-0.1,0.1-0.2l0,0
		c0.7-1.4,1.3-3.1,1.3-4.2c0-0.4,0-0.9-0.1-1.3c0.8,0.8,1.8,1.2,2.8,1.2c0.2,0,0.4-0.2,0.4-0.4v-1.2C285.2,51.2,285.1,51,284.9,51z
		 M268.3,58.1c-2.4,0.2-4.8,0.4-7.4,0.6c-1.5,0.1-3.1,0.2-4.7,0.2c-1.3,0-2.7,0.1-4.1,0.1c-1.2,0-6.6,0-7.9,0c-1.1,0-2.1,0-3.1,0
		l1.6-4.2l0,0L257,19.4l13.8,34.3l0,0c0,0,0.9,2.5,1.5,4C271,58,269.7,58,268.3,58.1z"/>
</g>
</svg>
